<svg xmlns="http://www.w3.org/2000/svg" viewBox="0 0 135.679 157.99"><title>St. Louis Cardinals dark logo</title><path d="M115.228 126.516c-5.15 9.514-13.116 10.023-14.732 10.023H47.15v-4.41c5.806 1.324 11.593 2.267 17.12 2.62 21.49 1.367 38.72-2.935 48.51-12.13 6.467-6.063 9.745-14.04 9.745-23.704 0-13.193-9.14-26.553-29.398-29.69v-2.333h17.56l-9.067-16.365 14.91-25.05s-14.017 5.148-25.866 2.218c-7.716-1.908-26.118-5.28-43.512-5.512V20.08h8.618V0H17.08v20.08h8.62v3.31C10.917 27.18 0 40.586 0 56.54 0 72.5 10.917 85.305 25.7 88.903v13.312c-2.205-.984-4.41-2.034-6.615-3.16L5.48 116.822c5.892 2.982 12.814 6.063 20.22 8.815v10.902h-8.62v21.45h83.417c12.467 0 22.39-4.902 30.033-14.898l-15.302-16.576zM25.7 67.172c-3.7-2.495-5.44-7.016-5.44-11.324 0-4.265 2.14-8.05 5.44-10.48V67.17zm73.912 33.522c0 3.568-1.997 6.392-6.106 8.63-9.383 5.107-26.718 5.605-46.358.483V90h25.626v11.085h20.35v-9.81c4.545 1.53 6.488 4.512 6.488 9.42M90.13 48.557H65.373L55.212 66.894h17.563v1.936H47.15V43.426c11.385.075 28.284 1.144 42.98 5.132" fill="#FFF"/><path d="M115.71 133.61c-5.03 5.732-11.213 7.386-15.214 7.386H42.69V126.41c7.386 2.003 14.846 3.44 21.862 3.89 27.36 1.745 53.516-5.712 53.516-31.383 0-12.75-9.742-24.095-29.31-25.72V62.523h14.513l-5.32-9.594H67.953l-5.323 9.594h14.515v10.763H42.69v-34.29c12.908-.227 37.225.807 56.03 7.68 1.797-3.018 4.7-7.896 8.548-14.357-5.223.83-11.625 1.2-17.68-.295-6.918-1.714-27.986-5.73-46.897-5.333v-11.07h8.62V4.454H21.533v11.168h8.618v11.443C15.66 29.05 4.455 41.505 4.455 56.54c0 15.032 11.204 26.787 25.697 28.66v23.724c-3.238-1.276-6.5-2.69-9.76-4.255l-8.03 10.494c5.373 2.524 11.433 5.05 17.79 7.308v18.524h-8.62v12.537h78.963c9.975 0 17.836-3.445 24.12-10.275l-8.906-9.65zM30.15 73.415c-8.825-1.104-14.348-8.554-14.348-17.567 0-8.428 6.148-15.485 14.348-17.272v34.838zm46.992 12.13V96.72h11.614V85.818c6.763.74 15.312 3.6 15.312 14.877 0 16.297-28.186 22.012-61.38 12.483v-27.63h34.454zM129.656 154.122h-1.405v3.868h-.893v-3.868h-1.397v-.73h3.696v.73zm3.49 2.528l1.243-3.26h1.288v4.6h-.834v-3.583h-.026l-1.37 3.583h-.627l-1.367-3.583h-.02v3.583h-.837v-4.6h1.292l1.258 3.26z" fill="#CF2734"/></svg>