<?xml version="1.0" encoding="UTF-8" standalone="no"?>
<svg stroke-linejoin="round" xmlns:rdf="http://www.w3.org/1999/02/22-rdf-syntax-ns#" xmlns="http://www.w3.org/2000/svg" fill-rule="evenodd" xml:space="preserve" height="80.856" width="130.8" version="1.1" stroke-miterlimit="1.4142" clip-rule="evenodd" xmlns:cc="http://creativecommons.org/ns#" xmlns:dc="http://purl.org/dc/elements/1.1/" viewBox="0 0 211.28987 50.053409"><g style="" transform="translate(.91164 65.082)"><path d="m192.89-104.6h-125.66c-6.7689 0-12.264 7.2921-12.264 16.277v74.588c0 8.9863 5.4955 16.272 12.264 16.272h125.66c6.7768 0 12.266-7.2858 12.266-16.272v-74.588c0-8.985-5.4888-16.277-12.266-16.277" fill="#fff"/><path d="m197.6 2.4832c6.6591 0 12.075-5.4381 12.075-12.075v-82.952c0-3.2297-1.2506-6.2565-3.5362-8.5278-2.2819-2.2855-5.3098-3.5369-8.5388-3.5369h-51.858l29.822 49.777 2.7353 0.3357 1.5871 2.2855v2.1469l1.9345 0.35142 1.7114 2.3843 0.011 2.0482 1.9235 0.34009s1.9345 2.0467 1.9345 2.1568v4.6625s4.1981 3.8583 7.9683 5.3324c2.611 1.0228 2.9474 5.2213 4.4358 7.4966 2.0478 3.184 4.7685 4.5455 4.209 6.3666-1.364 4.8856-6.3593 13.065-11.029 13.526 0 0-11.592 0.014262-18.412 0.014262l0.011 7.8663h23.016" fill="#bb2a1a"/><path d="m128.06-104.62h-115.99c-3.2297 0-6.2565 1.2616-8.5307 3.5369-2.2908 2.283-3.5393 5.311-3.5393 8.54v82.952c0 3.2297 1.2484 6.2678 3.5439 8.5391 2.2742 2.2855 5.301 3.5354 8.5307 3.5354h75.34c-1.902-3.1509-4.015-6.7321-4.659-7.8204h-8.9885c-0.01463-22.271 7.5953-34.66 16.587-37.059 1.236-0.23879 0.66189-6.3596-0.92518-8.1807 0 0-4.3187 0.11263-5.233-0.12433-1.1373-0.33716-0.3474-1.4627-0.3474-1.4627l4.209-9.095-0.56316-2.5086-15.586 0.0117c-0.22672 0 12.85-8.9823 12.85-8.9823 0.66555-23.631 24.87-25.467 39.523-15.71 8.6631 5.7968 9.3506 17.163 8.6777 25.12-0.11336 0.46113-2.2855 0.12397-2.2855 0.12397s-1.4627 8.6309 2.3952 8.6309h17.037c6.9444-0.2344 13.651 4.4138 13.651 4.4138l1.7114-5.9095-37.406-48.549" fill="#008"/><path d="m24.942-31.182c-4.5696 0.02267-8.2839 3.7267-8.2722 8.3051 0 4.5824 3.7026 8.2937 8.282 8.2937 4.5813-0.01024 8.2937-3.7227 8.2937-8.3153 0-4.5568-3.7355-8.2835-8.3036-8.2835" fill="#fff"/><g fill="#008"><path d="m6.9175 24.19-1.9937-11.103-0.11558-0.745h-0.17337v11.848h-2.8894v-17.664h3.8141l1.8492 8.0748 0.14447 0.93726h0.057789l0.14447-0.93726 1.8492-8.0748h3.8141v17.664h-2.8894v-11.848h-0.17337l-0.11558 0.745-1.9937 11.103h-1.3291z"/><path d="m15.441 24.19 3.2073-17.664h3.8141l3.2073 17.664h-3.0339l-0.57789-3.6048h-3.005l-0.57789 3.6048h-3.0339zm5.2877-11.92-0.08668-0.45661h-0.17337l-0.08668 0.45661-0.89572 5.5755h2.1382l-0.89572-5.5755z"/><path d="m26.71 21.811c0.60678 0.0721 1.0691-0.04806 1.4158-0.43258 0.17337-0.16823 0.26005-0.45661 0.26005-0.86516v-13.987h3.1206v14.395c0 0.96129-0.28894 1.8505-1.0113 2.4993-0.72236 0.64887-1.9359 1.0334-3.7852 0.93725v-2.5474z"/><path d="m42.371 20.561c-0.02889 0.72096-0.20226 1.3698-0.5201 1.9226-0.26005 0.48064-0.66457 0.93725-1.2425 1.2977-0.57789 0.38451-1.358 0.6008-2.3982 0.6008s-1.8492-0.21629-2.4271-0.6008c-0.57789-0.36048-0.95351-0.81709-1.2136-1.2977-0.31784-0.55274-0.4912-1.2016-0.5201-1.9226v-10.406c0.02889-0.69693 0.20226-1.3458 0.5201-1.8985 0.26005-0.48064 0.63568-0.96129 1.2136-1.3218 0.57789-0.36048 1.3869-0.6008 2.4271-0.6008s1.8203 0.24032 2.3982 0.6008c0.57789 0.36048 0.98241 0.84113 1.2425 1.3218 0.31784 0.55274 0.4912 1.2016 0.5201 1.8985v10.406zm-3.121-10.406c0-0.48064-0.11558-0.81709-0.40452-1.1055-0.14447-0.12016-0.37563-0.19226-0.63568-0.19226-0.54899 0-0.80904 0.33645-0.92462 0.64887-0.08668 0.19226-0.11558 0.40855-0.11558 0.64887v10.406c0 0.50468 0.14447 0.84113 0.43341 1.1055 0.14447 0.12016 0.34673 0.19226 0.60678 0.19226 0.54899 0 0.80904-0.28839 0.92462-0.64887 0.08668-0.16822 0.11558-0.38451 0.11558-0.64887v-10.406z"/><path d="m50.635 24.19-1.6181-7.45h-0.83794v7.45h-3.1206v-17.664h3.1206c3.7274 0 5.3166 1.7543 5.3166 5.0948 0 1.7543-0.54899 3.3405-1.7337 4.0134l1.9937 8.5554h-3.1206zm-2.456-9.8532c0.43342 0 1.0113-0.04806 1.4736-0.38452 0.46231-0.33645 0.83794-0.98532 0.83794-2.235s-0.37563-1.9226-0.83794-2.259c-0.463-0.337-1.041-0.361-1.474-0.361v5.239z"/><path d="m61.094 6.5261h3.1206v15.26h4.1319v2.4032h-7.2525v-17.664z"/><path d="m70.196 6.5261h7.1369v2.6676h-4.0163v4.6382h2.8894v2.8358h-2.8894v4.8545h4.0163v2.6676h-7.1369v-17.664z"/><path d="m78.835 24.19 3.2073-17.664h3.814l3.2073 17.664h-3.0339l-0.57789-3.6048h-3.005l-0.57789 3.6048h-3.0339zm5.2877-11.92-0.08668-0.45661h-0.17337l-0.08668 0.45661-0.89572 5.5755h2.1382l-0.89572-5.5755z"/><path d="m96.085 12.871v-2.7156c0-0.48064-0.11558-0.81709-0.40452-1.1055-0.14447-0.12016-0.37563-0.19226-0.63568-0.19226-0.54899 0-0.80904 0.33645-0.92462 0.64887-0.08668 0.19226-0.11558 0.40855-0.11558 0.64887v10.622c0 0.50468 0.14447 0.84112 0.43342 1.1055 0.14447 0.12016 0.34673 0.19226 0.60678 0.19226 0.54899 0 0.80904-0.28839 0.92462-0.64887 0.08668-0.16822 0.11558-0.38452 0.11558-0.64887v-3.1963h-1.2425v-2.1869h4.363v8.7958h-1.8492l-0.37563-0.84112c-0.57789 0.6008-1.4158 1.0334-2.4271 1.0334s-1.7048-0.21629-2.2249-0.6008c-0.5201-0.36048-0.86683-0.81709-1.098-1.2977-0.26005-0.55274-0.37563-1.2016-0.34673-1.9226v-10.406c0.0289-0.69693 0.20226-1.3458 0.5201-1.8985 0.26005-0.48064 0.63568-0.96129 1.2136-1.3218 0.57789-0.36048 1.3869-0.6008 2.4271-0.6008s1.8203 0.24032 2.3982 0.6008c0.57789 0.36048 0.98241 0.84113 1.2425 1.3218 0.31784 0.55274 0.4912 1.2016 0.5201 1.8985v2.7156h-3.1206z"/><path d="m110.36 6.5261v14.035c-0.0289 0.72096-0.20226 1.3698-0.52009 1.9226-0.26005 0.48064-0.66457 0.93725-1.2425 1.2977-0.57789 0.38451-1.358 0.6008-2.3982 0.6008s-1.8492-0.21629-2.4271-0.6008c-0.57789-0.36048-0.95351-0.81709-1.2136-1.2977-0.31784-0.55274-0.49121-1.2016-0.5201-1.9226v-14.035h3.1206v14.035c0 0.50468 0.14447 0.84113 0.43341 1.1055 0.14447 0.12016 0.34673 0.19226 0.60678 0.19226 0.54899 0 0.80904-0.28839 0.92462-0.64887 0.0867-0.16822 0.11558-0.38451 0.11558-0.64887v-14.035h3.1206z"/><path d="m113.22 6.5261h7.1369v2.6676h-4.0163v4.6382h2.8894v2.8358h-2.8894v4.8545h4.0163v2.6676h-7.1369v-17.664z"/><path d="m127.7 24.19v-17.664h2.745c1.8492 0 3.294 0.28839 4.2475 1.0334 0.95351 0.745 1.4447 1.8985 1.4447 3.6529 0 0.84112-0.0867 1.466-0.40452 2.0427-0.31784 0.57677-0.80904 1.0574-1.5314 1.6102 0.78014 0.36048 1.358 1.0334 1.8203 2.1629 0.23115 0.55274 0.34673 1.2737 0.34673 2.1629 0 1.3218-0.28894 2.4993-1.0113 3.4126-0.72236 0.91322-1.9648 1.514-3.814 1.5861h-3.8429zm3.1206-10.382c0.26005 0 0.86683 0.02403 1.3869-0.26435 0.5201-0.28839 0.92462-0.86516 0.92462-2.0908s-0.40452-1.8024-0.92462-2.0908c-0.5201-0.28839-1.1269-0.26435-1.3869-0.26435v4.7103zm0 7.8105c0.26005 0 0.86683 0.04806 1.3869-0.26435 0.5201-0.31242 0.92462-1.0094 0.92462-2.4513s-0.40452-2.1389-0.92462-2.4513c-0.5201-0.31242-1.1269-0.26435-1.3869-0.26435v5.4313z"/><path d="m137.92 24.19 3.2073-17.664h3.814l3.2073 17.664h-3.0339l-0.57789-3.6048h-3.005l-0.57788 3.6048h-3.0339zm5.2877-11.92-0.0867-0.45661h-0.17336l-0.0867 0.45661-0.89572 5.5755h2.1382l-0.89573-5.5755z"/><path d="m155.06 11.26c0-0.57677-0.0289-1.2256-0.23116-1.7303-0.20226-0.48064-0.5201-0.81709-1.0113-0.81709-0.80904 0.024032-1.0691 0.72096-1.0691 1.7543 0 0.6008 0.31784 1.2256 0.78015 1.8985s1.0691 1.3698 1.6759 2.1148c0.72236 0.88919 1.4447 1.8024 1.9937 2.6916 0.54899 0.88919 0.92461 1.8024 0.92461 2.7637 0 1.1776-0.23115 2.2831-0.89572 3.1001-0.66457 0.81709-1.7337 1.3458-3.4384 1.3458-1.9937 0-3.1206-0.62484-3.7563-1.5861-0.63567-0.96129-0.78014-2.235-0.78014-3.5568l3.0628-0.24032c0 0.745 0.0289 1.49 0.26004 2.0427 0.20226 0.57677 0.549 0.96129 1.2136 0.96129 0.92461 0 1.2714-0.81709 1.2714-1.9466 0-0.57677-0.34674-1.2497-0.80904-1.9466-0.26005-0.33645-0.5201-0.69693-0.80905-1.0574-0.60678-0.72096-1.2714-1.5381-1.9648-2.4272-0.69346-0.88919-1.2136-1.8024-1.5314-2.7397-0.17336-0.45661-0.26005-0.93725-0.26005-1.4179 0-0.96129 0.26005-1.9947 0.92462-2.7877 0.66457-0.76903 1.6759-1.3218 3.1495-1.3458 1.8781-0.024032 2.9761 0.62484 3.5829 1.5621 0.60678 0.96129 0.78014 2.1389 0.78014 3.1242l-3.0628 0.24032z"/><path d="m160.38 6.5261h7.1369v2.6676h-4.0163v4.6382h2.8894v2.8358h-2.8894v4.8545h4.0163v2.6676h-7.1369v-17.664z"/><path d="m169.82 24.19v-17.664h2.745c1.8492 0 3.294 0.28839 4.2475 1.0334 0.95351 0.745 1.4447 1.8985 1.4447 3.6529 0 0.84112-0.0867 1.466-0.40453 2.0427-0.31783 0.57677-0.80904 1.0574-1.5314 1.6102 0.78014 0.36048 1.358 1.0334 1.8203 2.1629 0.23115 0.55274 0.34673 1.2737 0.34673 2.1629 0 1.3218-0.28894 2.4993-1.0113 3.4126-0.72236 0.91322-1.9648 1.514-3.814 1.5861h-3.843zm3.1206-10.382c0.26005 0 0.86683 0.02403 1.3869-0.26435 0.5201-0.28839 0.92462-0.86516 0.92462-2.0908s-0.40452-1.8024-0.92462-2.0908c-0.5201-0.28839-1.1269-0.26435-1.3869-0.26435v4.7103zm0 7.8105c0.26005 0 0.86683 0.04806 1.3869-0.26435 0.5201-0.31242 0.92462-1.0094 0.92462-2.4513s-0.40452-2.1389-0.92462-2.4513c-0.5201-0.31242-1.1269-0.26435-1.3869-0.26435v5.4313z"/><path d="m180.05 24.19 3.2073-17.664h3.814l3.2073 17.664h-3.0339l-0.57789-3.6048h-3.005l-0.57788 3.6048h-3.0339zm5.2877-11.92-0.0867-0.45661h-0.17337l-0.0867 0.45661-0.89572 5.5755h2.1382l-0.89573-5.5755z"/><path d="m192.3 6.5261h3.1206v15.26h4.1319v2.4032h-7.2525v-17.664z"/><path d="m201.41 6.5261h3.1206v15.26h4.1319v2.4032h-7.2525v-17.664z"/></g></g></svg>
